<svg version="1.1" xmlns="http://www.w3.org/2000/svg" xmlns:xlink="http://www.w3.org/1999/xlink" width="250px" height="250px" viewBox="0,0,256,256"><defs><radialGradient cx="40.32654" cy="-28.04854" r="287.5125" gradientUnits="userSpaceOnUse" id="color-1"><stop offset="0" stop-color="#ffe245"></stop><stop offset="0.37" stop-color="#fee245" stop-opacity="0.99"></stop><stop offset="0.51" stop-color="#fae244" stop-opacity="0.97"></stop><stop offset="0.6" stop-color="#f2e243" stop-opacity="0.92"></stop><stop offset="0.68" stop-color="#e8e241" stop-opacity="0.85"></stop><stop offset="0.74" stop-color="#dae23e" stop-opacity="0.77"></stop><stop offset="0.8" stop-color="#c9e23b" stop-opacity="0.66"></stop><stop offset="0.85" stop-color="#b5e237" stop-opacity="0.53"></stop><stop offset="0.9" stop-color="#9ee333" stop-opacity="0.39"></stop><stop offset="0.95" stop-color="#83e32d" stop-opacity="0.22"></stop><stop offset="0.99" stop-color="#67e328" stop-opacity="0.04"></stop><stop offset="1" stop-color="#61e327" stop-opacity="0"></stop></radialGradient><radialGradient cx="3624.60534" cy="-441.69078" r="10305.38251" gradientUnits="userSpaceOnUse" id="color-2"><stop offset="0" stop-color="#ffe245"></stop><stop offset="0.37" stop-color="#fee245" stop-opacity="0.99"></stop><stop offset="0.51" stop-color="#fae244" stop-opacity="0.97"></stop><stop offset="0.6" stop-color="#f2e243" stop-opacity="0.92"></stop><stop offset="0.68" stop-color="#e8e241" stop-opacity="0.85"></stop><stop offset="0.74" stop-color="#dae23e" stop-opacity="0.77"></stop><stop offset="0.8" stop-color="#c9e23b" stop-opacity="0.66"></stop><stop offset="0.85" stop-color="#b5e237" stop-opacity="0.53"></stop><stop offset="0.9" stop-color="#9ee333" stop-opacity="0.39"></stop><stop offset="0.95" stop-color="#83e32d" stop-opacity="0.22"></stop><stop offset="0.99" stop-color="#67e328" stop-opacity="0.04"></stop><stop offset="1" stop-color="#61e327" stop-opacity="0"></stop></radialGradient><radialGradient cx="2975.51283" cy="-183.7296" r="7023.76791" gradientUnits="userSpaceOnUse" id="color-3"><stop offset="0" stop-color="#ffe245"></stop><stop offset="0.37" stop-color="#fee245" stop-opacity="0.99"></stop><stop offset="0.51" stop-color="#fae244" stop-opacity="0.97"></stop><stop offset="0.6" stop-color="#f2e243" stop-opacity="0.92"></stop><stop offset="0.68" stop-color="#e8e241" stop-opacity="0.85"></stop><stop offset="0.74" stop-color="#dae23e" stop-opacity="0.77"></stop><stop offset="0.8" stop-color="#c9e23b" stop-opacity="0.66"></stop><stop offset="0.85" stop-color="#b5e237" stop-opacity="0.53"></stop><stop offset="0.9" stop-color="#9ee333" stop-opacity="0.39"></stop><stop offset="0.95" stop-color="#83e32d" stop-opacity="0.22"></stop><stop offset="0.99" stop-color="#67e328" stop-opacity="0.04"></stop><stop offset="1" stop-color="#61e327" stop-opacity="0"></stop></radialGradient><radialGradient cx="63.8847" cy="-13.3979" r="212.08461" gradientUnits="userSpaceOnUse" id="color-4"><stop offset="0.08" stop-color="#ffe245"></stop><stop offset="0.53" stop-color="#de007b"></stop><stop offset="1" stop-color="#e38427"></stop></radialGradient><radialGradient cx="52.1171" cy="-2.1247" r="261.09576" gradientUnits="userSpaceOnUse" id="color-5"><stop offset="0" stop-color="#d1e1ee"></stop><stop offset="0.34" stop-color="#8ee1ee"></stop><stop offset="0.94" stop-color="#732fa4"></stop></radialGradient><radialGradient cx="80.08881" cy="34.90576" r="222.55" gradientUnits="userSpaceOnUse" id="color-6"><stop offset="0.08" stop-color="#f128c5"></stop><stop offset="1" stop-color="#c11bb9"></stop></radialGradient><radialGradient cx="3083.56199" cy="103359.15557" r="25934.96465" gradientUnits="userSpaceOnUse" id="color-7"><stop offset="0" stop-color="#d1e1ee"></stop><stop offset="0.34" stop-color="#8ee1ee"></stop><stop offset="0.94" stop-color="#732fa4"></stop></radialGradient><radialGradient cx="310.0726" cy="11618.7275" r="2503.657" gradientUnits="userSpaceOnUse" id="color-8"><stop offset="0" stop-color="#d1e1ee"></stop><stop offset="0.34" stop-color="#8ee1ee"></stop><stop offset="0.94" stop-color="#732fa4"></stop></radialGradient><radialGradient cx="762.8878" cy="2301.085" r="6827.7495" gradientUnits="userSpaceOnUse" id="color-9"><stop offset="0" stop-color="#d1e1ee"></stop><stop offset="0.34" stop-color="#8ee1ee"></stop><stop offset="0.94" stop-color="#732fa4"></stop></radialGradient><radialGradient cx="687.3288" cy="3598.1575" r="6477.952" gradientUnits="userSpaceOnUse" id="color-10"><stop offset="0" stop-color="#d1e1ee"></stop><stop offset="0.34" stop-color="#8ee1ee"></stop><stop offset="0.94" stop-color="#732fa4"></stop></radialGradient><radialGradient cx="219.232" cy="21575.436" r="2351.672" gradientUnits="userSpaceOnUse" id="color-11"><stop offset="0" stop-color="#d1e1ee"></stop><stop offset="0.34" stop-color="#8ee1ee"></stop><stop offset="0.94" stop-color="#732fa4"></stop></radialGradient><radialGradient cx="186.414" cy="20602.3292" r="1577.704" gradientUnits="userSpaceOnUse" id="color-12"><stop offset="0" stop-color="#d1e1ee"></stop><stop offset="0.34" stop-color="#8ee1ee"></stop><stop offset="0.94" stop-color="#732fa4"></stop></radialGradient><radialGradient cx="11416.43851" cy="-5424.05513" r="7014.126" gradientUnits="userSpaceOnUse" id="color-13"><stop offset="0.08" stop-color="#f128c5"></stop><stop offset="1" stop-color="#c11bb9"></stop></radialGradient><radialGradient cx="8141.15317" cy="4513.05725" r="3447.19973" gradientUnits="userSpaceOnUse" id="color-14"><stop offset="0.08" stop-color="#f128c5"></stop><stop offset="1" stop-color="#c11bb9"></stop></radialGradient><radialGradient cx="19111.37757" cy="6495.93272" r="39845.87811" gradientUnits="userSpaceOnUse" id="color-15"><stop offset="0" stop-color="#ffe245"></stop><stop offset="0.37" stop-color="#fee245" stop-opacity="0.99"></stop><stop offset="0.51" stop-color="#fae244" stop-opacity="0.97"></stop><stop offset="0.6" stop-color="#f2e243" stop-opacity="0.92"></stop><stop offset="0.68" stop-color="#e8e241" stop-opacity="0.85"></stop><stop offset="0.74" stop-color="#dae23e" stop-opacity="0.77"></stop><stop offset="0.8" stop-color="#c9e23b" stop-opacity="0.66"></stop><stop offset="0.85" stop-color="#b5e237" stop-opacity="0.53"></stop><stop offset="0.9" stop-color="#9ee333" stop-opacity="0.39"></stop><stop offset="0.95" stop-color="#83e32d" stop-opacity="0.22"></stop><stop offset="0.99" stop-color="#67e328" stop-opacity="0.04"></stop><stop offset="1" stop-color="#61e327" stop-opacity="0"></stop></radialGradient><radialGradient cx="6668.52556" cy="1484.76176" r="1546.78512" gradientUnits="userSpaceOnUse" id="color-16"><stop offset="0" stop-color="#ffe245"></stop><stop offset="0.37" stop-color="#fee245" stop-opacity="0.99"></stop><stop offset="0.51" stop-color="#fae244" stop-opacity="0.97"></stop><stop offset="0.6" stop-color="#f2e243" stop-opacity="0.92"></stop><stop offset="0.68" stop-color="#e8e241" stop-opacity="0.85"></stop><stop offset="0.74" stop-color="#dae23e" stop-opacity="0.77"></stop><stop offset="0.8" stop-color="#c9e23b" stop-opacity="0.66"></stop><stop offset="0.85" stop-color="#b5e237" stop-opacity="0.53"></stop><stop offset="0.9" stop-color="#9ee333" stop-opacity="0.39"></stop><stop offset="0.95" stop-color="#83e32d" stop-opacity="0.22"></stop><stop offset="0.99" stop-color="#67e328" stop-opacity="0.04"></stop><stop offset="1" stop-color="#61e327" stop-opacity="0"></stop></radialGradient><radialGradient cx="8611.70518" cy="1139.02869" r="1546.78152" gradientUnits="userSpaceOnUse" id="color-17"><stop offset="0" stop-color="#ffe245"></stop><stop offset="0.37" stop-color="#fee245" stop-opacity="0.99"></stop><stop offset="0.51" stop-color="#fae244" stop-opacity="0.97"></stop><stop offset="0.6" stop-color="#f2e243" stop-opacity="0.92"></stop><stop offset="0.68" stop-color="#e8e241" stop-opacity="0.85"></stop><stop offset="0.74" stop-color="#dae23e" stop-opacity="0.77"></stop><stop offset="0.8" stop-color="#c9e23b" stop-opacity="0.66"></stop><stop offset="0.85" stop-color="#b5e237" stop-opacity="0.53"></stop><stop offset="0.9" stop-color="#9ee333" stop-opacity="0.39"></stop><stop offset="0.95" stop-color="#83e32d" stop-opacity="0.22"></stop><stop offset="0.99" stop-color="#67e328" stop-opacity="0.04"></stop><stop offset="1" stop-color="#61e327" stop-opacity="0"></stop></radialGradient><radialGradient cx="4271.1098" cy="2644.70254" r="820.09952" gradientUnits="userSpaceOnUse" id="color-18"><stop offset="0" stop-color="#ffe245"></stop><stop offset="0.37" stop-color="#fee245" stop-opacity="0.99"></stop><stop offset="0.51" stop-color="#fae244" stop-opacity="0.97"></stop><stop offset="0.6" stop-color="#f2e243" stop-opacity="0.92"></stop><stop offset="0.68" stop-color="#e8e241" stop-opacity="0.85"></stop><stop offset="0.74" stop-color="#dae23e" stop-opacity="0.77"></stop><stop offset="0.8" stop-color="#c9e23b" stop-opacity="0.66"></stop><stop offset="0.85" stop-color="#b5e237" stop-opacity="0.53"></stop><stop offset="0.9" stop-color="#9ee333" stop-opacity="0.39"></stop><stop offset="0.95" stop-color="#83e32d" stop-opacity="0.22"></stop><stop offset="0.99" stop-color="#67e328" stop-opacity="0.04"></stop><stop offset="1" stop-color="#61e327" stop-opacity="0"></stop></radialGradient><radialGradient cx="5586.12318" cy="1896.46685" r="820.09952" gradientUnits="userSpaceOnUse" id="color-19"><stop offset="0" stop-color="#ffe245"></stop><stop offset="0.37" stop-color="#fee245" stop-opacity="0.99"></stop><stop offset="0.51" stop-color="#fae244" stop-opacity="0.97"></stop><stop offset="0.6" stop-color="#f2e243" stop-opacity="0.92"></stop><stop offset="0.68" stop-color="#e8e241" stop-opacity="0.85"></stop><stop offset="0.74" stop-color="#dae23e" stop-opacity="0.77"></stop><stop offset="0.8" stop-color="#c9e23b" stop-opacity="0.66"></stop><stop offset="0.85" stop-color="#b5e237" stop-opacity="0.53"></stop><stop offset="0.9" stop-color="#9ee333" stop-opacity="0.39"></stop><stop offset="0.95" stop-color="#83e32d" stop-opacity="0.22"></stop><stop offset="0.99" stop-color="#67e328" stop-opacity="0.04"></stop><stop offset="1" stop-color="#61e327" stop-opacity="0"></stop></radialGradient><radialGradient cx="2705.25336" cy="3274.35419" r="819.86517" gradientUnits="userSpaceOnUse" id="color-20"><stop offset="0" stop-color="#ffe245"></stop><stop offset="0.37" stop-color="#fee245" stop-opacity="0.99"></stop><stop offset="0.51" stop-color="#fae244" stop-opacity="0.97"></stop><stop offset="0.6" stop-color="#f2e243" stop-opacity="0.92"></stop><stop offset="0.68" stop-color="#e8e241" stop-opacity="0.85"></stop><stop offset="0.74" stop-color="#dae23e" stop-opacity="0.77"></stop><stop offset="0.8" stop-color="#c9e23b" stop-opacity="0.66"></stop><stop offset="0.85" stop-color="#b5e237" stop-opacity="0.53"></stop><stop offset="0.9" stop-color="#9ee333" stop-opacity="0.39"></stop><stop offset="0.95" stop-color="#83e32d" stop-opacity="0.22"></stop><stop offset="0.99" stop-color="#67e328" stop-opacity="0.04"></stop><stop offset="1" stop-color="#61e327" stop-opacity="0"></stop></radialGradient><radialGradient cx="2519.46347" cy="3490.79362" r="1547.13956" gradientUnits="userSpaceOnUse" id="color-21"><stop offset="0" stop-color="#ffe245"></stop><stop offset="0.37" stop-color="#fee245" stop-opacity="0.99"></stop><stop offset="0.51" stop-color="#fae244" stop-opacity="0.97"></stop><stop offset="0.6" stop-color="#f2e243" stop-opacity="0.92"></stop><stop offset="0.68" stop-color="#e8e241" stop-opacity="0.85"></stop><stop offset="0.74" stop-color="#dae23e" stop-opacity="0.77"></stop><stop offset="0.8" stop-color="#c9e23b" stop-opacity="0.66"></stop><stop offset="0.85" stop-color="#b5e237" stop-opacity="0.53"></stop><stop offset="0.9" stop-color="#9ee333" stop-opacity="0.39"></stop><stop offset="0.95" stop-color="#83e32d" stop-opacity="0.22"></stop><stop offset="0.99" stop-color="#67e328" stop-opacity="0.04"></stop><stop offset="1" stop-color="#61e327" stop-opacity="0"></stop></radialGradient><radialGradient cx="1475.96319" cy="4589.52547" r="1546.78512" gradientUnits="userSpaceOnUse" id="color-22"><stop offset="0" stop-color="#ffe245"></stop><stop offset="0.37" stop-color="#fee245" stop-opacity="0.99"></stop><stop offset="0.51" stop-color="#fae244" stop-opacity="0.97"></stop><stop offset="0.6" stop-color="#f2e243" stop-opacity="0.92"></stop><stop offset="0.68" stop-color="#e8e241" stop-opacity="0.85"></stop><stop offset="0.74" stop-color="#dae23e" stop-opacity="0.77"></stop><stop offset="0.8" stop-color="#c9e23b" stop-opacity="0.66"></stop><stop offset="0.85" stop-color="#b5e237" stop-opacity="0.53"></stop><stop offset="0.9" stop-color="#9ee333" stop-opacity="0.39"></stop><stop offset="0.95" stop-color="#83e32d" stop-opacity="0.22"></stop><stop offset="0.99" stop-color="#67e328" stop-opacity="0.04"></stop><stop offset="1" stop-color="#61e327" stop-opacity="0"></stop></radialGradient><radialGradient cx="4484.68662" cy="2307.86568" r="1546.75821" gradientUnits="userSpaceOnUse" id="color-23"><stop offset="0" stop-color="#ffe245"></stop><stop offset="0.37" stop-color="#fee245" stop-opacity="0.99"></stop><stop offset="0.51" stop-color="#fae244" stop-opacity="0.97"></stop><stop offset="0.6" stop-color="#f2e243" stop-opacity="0.92"></stop><stop offset="0.68" stop-color="#e8e241" stop-opacity="0.85"></stop><stop offset="0.74" stop-color="#dae23e" stop-opacity="0.77"></stop><stop offset="0.8" stop-color="#c9e23b" stop-opacity="0.66"></stop><stop offset="0.85" stop-color="#b5e237" stop-opacity="0.53"></stop><stop offset="0.9" stop-color="#9ee333" stop-opacity="0.39"></stop><stop offset="0.95" stop-color="#83e32d" stop-opacity="0.22"></stop><stop offset="0.99" stop-color="#67e328" stop-opacity="0.04"></stop><stop offset="1" stop-color="#61e327" stop-opacity="0"></stop></radialGradient><radialGradient cx="1339.96613" cy="225.26525" r="303.577" gradientUnits="userSpaceOnUse" id="color-24"><stop offset="0" stop-color="#ffe245"></stop><stop offset="0.37" stop-color="#fee245" stop-opacity="0.99"></stop><stop offset="0.51" stop-color="#fae244" stop-opacity="0.97"></stop><stop offset="0.6" stop-color="#f2e243" stop-opacity="0.92"></stop><stop offset="0.68" stop-color="#e8e241" stop-opacity="0.85"></stop><stop offset="0.74" stop-color="#dae23e" stop-opacity="0.77"></stop><stop offset="0.8" stop-color="#c9e23b" stop-opacity="0.66"></stop><stop offset="0.85" stop-color="#b5e237" stop-opacity="0.53"></stop><stop offset="0.9" stop-color="#9ee333" stop-opacity="0.39"></stop><stop offset="0.95" stop-color="#83e32d" stop-opacity="0.22"></stop><stop offset="0.99" stop-color="#67e328" stop-opacity="0.04"></stop><stop offset="1" stop-color="#61e327" stop-opacity="0"></stop></radialGradient><radialGradient cx="1658.2624" cy="-242.40882" r="303.577" gradientUnits="userSpaceOnUse" id="color-25"><stop offset="0" stop-color="#ffe245"></stop><stop offset="0.37" stop-color="#fee245" stop-opacity="0.99"></stop><stop offset="0.51" stop-color="#fae244" stop-opacity="0.97"></stop><stop offset="0.6" stop-color="#f2e243" stop-opacity="0.92"></stop><stop offset="0.68" stop-color="#e8e241" stop-opacity="0.85"></stop><stop offset="0.74" stop-color="#dae23e" stop-opacity="0.77"></stop><stop offset="0.8" stop-color="#c9e23b" stop-opacity="0.66"></stop><stop offset="0.85" stop-color="#b5e237" stop-opacity="0.53"></stop><stop offset="0.9" stop-color="#9ee333" stop-opacity="0.39"></stop><stop offset="0.95" stop-color="#83e32d" stop-opacity="0.22"></stop><stop offset="0.99" stop-color="#67e328" stop-opacity="0.04"></stop><stop offset="1" stop-color="#61e327" stop-opacity="0"></stop></radialGradient><radialGradient cx="2365.46193" cy="-968.39251" r="303.577" gradientUnits="userSpaceOnUse" id="color-26"><stop offset="0" stop-color="#ffe245"></stop><stop offset="0.37" stop-color="#fee245" stop-opacity="0.99"></stop><stop offset="0.51" stop-color="#fae244" stop-opacity="0.97"></stop><stop offset="0.6" stop-color="#f2e243" stop-opacity="0.92"></stop><stop offset="0.68" stop-color="#e8e241" stop-opacity="0.85"></stop><stop offset="0.74" stop-color="#dae23e" stop-opacity="0.77"></stop><stop offset="0.8" stop-color="#c9e23b" stop-opacity="0.66"></stop><stop offset="0.85" stop-color="#b5e237" stop-opacity="0.53"></stop><stop offset="0.9" stop-color="#9ee333" stop-opacity="0.39"></stop><stop offset="0.95" stop-color="#83e32d" stop-opacity="0.22"></stop><stop offset="0.99" stop-color="#67e328" stop-opacity="0.04"></stop><stop offset="1" stop-color="#61e327" stop-opacity="0"></stop></radialGradient><radialGradient cx="3179.50606" cy="-1682.90505" r="303.577" gradientUnits="userSpaceOnUse" id="color-27"><stop offset="0" stop-color="#ffe245"></stop><stop offset="0.37" stop-color="#fee245" stop-opacity="0.99"></stop><stop offset="0.51" stop-color="#fae244" stop-opacity="0.97"></stop><stop offset="0.6" stop-color="#f2e243" stop-opacity="0.92"></stop><stop offset="0.68" stop-color="#e8e241" stop-opacity="0.85"></stop><stop offset="0.74" stop-color="#dae23e" stop-opacity="0.77"></stop><stop offset="0.8" stop-color="#c9e23b" stop-opacity="0.66"></stop><stop offset="0.85" stop-color="#b5e237" stop-opacity="0.53"></stop><stop offset="0.9" stop-color="#9ee333" stop-opacity="0.39"></stop><stop offset="0.95" stop-color="#83e32d" stop-opacity="0.22"></stop><stop offset="0.99" stop-color="#67e328" stop-opacity="0.04"></stop><stop offset="1" stop-color="#61e327" stop-opacity="0"></stop></radialGradient><radialGradient cx="3935.26977" cy="-2263.08618" r="303.577" gradientUnits="userSpaceOnUse" id="color-28"><stop offset="0" stop-color="#ffe245"></stop><stop offset="0.37" stop-color="#fee245" stop-opacity="0.99"></stop><stop offset="0.51" stop-color="#fae244" stop-opacity="0.97"></stop><stop offset="0.6" stop-color="#f2e243" stop-opacity="0.92"></stop><stop offset="0.68" stop-color="#e8e241" stop-opacity="0.85"></stop><stop offset="0.74" stop-color="#dae23e" stop-opacity="0.77"></stop><stop offset="0.8" stop-color="#c9e23b" stop-opacity="0.66"></stop><stop offset="0.85" stop-color="#b5e237" stop-opacity="0.53"></stop><stop offset="0.9" stop-color="#9ee333" stop-opacity="0.39"></stop><stop offset="0.95" stop-color="#83e32d" stop-opacity="0.22"></stop><stop offset="0.99" stop-color="#67e328" stop-opacity="0.04"></stop><stop offset="1" stop-color="#61e327" stop-opacity="0"></stop></radialGradient><radialGradient cx="2715.00943" cy="-1245.71119" r="176.1" gradientUnits="userSpaceOnUse" id="color-29"><stop offset="0" stop-color="#ffe245"></stop><stop offset="0.37" stop-color="#fee245" stop-opacity="0.99"></stop><stop offset="0.51" stop-color="#fae244" stop-opacity="0.97"></stop><stop offset="0.6" stop-color="#f2e243" stop-opacity="0.92"></stop><stop offset="0.68" stop-color="#e8e241" stop-opacity="0.85"></stop><stop offset="0.74" stop-color="#dae23e" stop-opacity="0.77"></stop><stop offset="0.8" stop-color="#c9e23b" stop-opacity="0.66"></stop><stop offset="0.85" stop-color="#b5e237" stop-opacity="0.53"></stop><stop offset="0.9" stop-color="#9ee333" stop-opacity="0.39"></stop><stop offset="0.95" stop-color="#83e32d" stop-opacity="0.22"></stop><stop offset="0.99" stop-color="#67e328" stop-opacity="0.04"></stop><stop offset="1" stop-color="#61e327" stop-opacity="0"></stop></radialGradient><radialGradient cx="2232.57851" cy="-757.42002" r="176.1" gradientUnits="userSpaceOnUse" id="color-30"><stop offset="0" stop-color="#ffe245"></stop><stop offset="0.37" stop-color="#fee245" stop-opacity="0.99"></stop><stop offset="0.51" stop-color="#fae244" stop-opacity="0.97"></stop><stop offset="0.6" stop-color="#f2e243" stop-opacity="0.92"></stop><stop offset="0.68" stop-color="#e8e241" stop-opacity="0.85"></stop><stop offset="0.74" stop-color="#dae23e" stop-opacity="0.77"></stop><stop offset="0.8" stop-color="#c9e23b" stop-opacity="0.66"></stop><stop offset="0.85" stop-color="#b5e237" stop-opacity="0.53"></stop><stop offset="0.9" stop-color="#9ee333" stop-opacity="0.39"></stop><stop offset="0.95" stop-color="#83e32d" stop-opacity="0.22"></stop><stop offset="0.99" stop-color="#67e328" stop-opacity="0.04"></stop><stop offset="1" stop-color="#61e327" stop-opacity="0"></stop></radialGradient><radialGradient cx="1619.55818" cy="-211.6367" r="176.1" gradientUnits="userSpaceOnUse" id="color-31"><stop offset="0" stop-color="#ffe245"></stop><stop offset="0.37" stop-color="#fee245" stop-opacity="0.99"></stop><stop offset="0.51" stop-color="#fae244" stop-opacity="0.97"></stop><stop offset="0.6" stop-color="#f2e243" stop-opacity="0.92"></stop><stop offset="0.68" stop-color="#e8e241" stop-opacity="0.85"></stop><stop offset="0.74" stop-color="#dae23e" stop-opacity="0.77"></stop><stop offset="0.8" stop-color="#c9e23b" stop-opacity="0.66"></stop><stop offset="0.85" stop-color="#b5e237" stop-opacity="0.53"></stop><stop offset="0.9" stop-color="#9ee333" stop-opacity="0.39"></stop><stop offset="0.95" stop-color="#83e32d" stop-opacity="0.22"></stop><stop offset="0.99" stop-color="#67e328" stop-opacity="0.04"></stop><stop offset="1" stop-color="#61e327" stop-opacity="0"></stop></radialGradient><radialGradient cx="169.62818" cy="154.30797" r="68.79" gradientUnits="userSpaceOnUse" id="color-32"><stop offset="0" stop-color="#c11bb9" stop-opacity="0"></stop><stop offset="0.07" stop-color="#ca1ebb" stop-opacity="0.2"></stop><stop offset="0.14" stop-color="#d320be" stop-opacity="0.38"></stop><stop offset="0.22" stop-color="#db22c0" stop-opacity="0.55"></stop><stop offset="0.31" stop-color="#e224c1" stop-opacity="0.69"></stop><stop offset="0.4" stop-color="#e825c3" stop-opacity="0.8"></stop><stop offset="0.49" stop-color="#ec27c4" stop-opacity="0.89"></stop><stop offset="0.6" stop-color="#ef27c4" stop-opacity="0.95"></stop><stop offset="0.73" stop-color="#f028c5" stop-opacity="0.99"></stop><stop offset="0.92" stop-color="#f128c5"></stop></radialGradient><radialGradient cx="17404.87224" cy="27329.9711" r="4393.12313" gradientUnits="userSpaceOnUse" id="color-33"><stop offset="0" stop-color="#c11bb9" stop-opacity="0"></stop><stop offset="0.07" stop-color="#ca1ebb" stop-opacity="0.2"></stop><stop offset="0.14" stop-color="#d320be" stop-opacity="0.38"></stop><stop offset="0.22" stop-color="#db22c0" stop-opacity="0.55"></stop><stop offset="0.31" stop-color="#e224c1" stop-opacity="0.69"></stop><stop offset="0.4" stop-color="#e825c3" stop-opacity="0.8"></stop><stop offset="0.49" stop-color="#ec27c4" stop-opacity="0.89"></stop><stop offset="0.6" stop-color="#ef27c4" stop-opacity="0.95"></stop><stop offset="0.73" stop-color="#f028c5" stop-opacity="0.99"></stop><stop offset="0.92" stop-color="#f128c5"></stop></radialGradient><radialGradient cx="12116.50431" cy="19438.16365" r="1806.27405" gradientUnits="userSpaceOnUse" id="color-34"><stop offset="0" stop-color="#c11bb9" stop-opacity="0"></stop><stop offset="0.07" stop-color="#ca1ebb" stop-opacity="0.2"></stop><stop offset="0.14" stop-color="#d320be" stop-opacity="0.38"></stop><stop offset="0.22" stop-color="#db22c0" stop-opacity="0.55"></stop><stop offset="0.31" stop-color="#e224c1" stop-opacity="0.69"></stop><stop offset="0.4" stop-color="#e825c3" stop-opacity="0.8"></stop><stop offset="0.49" stop-color="#ec27c4" stop-opacity="0.89"></stop><stop offset="0.6" stop-color="#ef27c4" stop-opacity="0.95"></stop><stop offset="0.73" stop-color="#f028c5" stop-opacity="0.99"></stop><stop offset="0.92" stop-color="#f128c5"></stop></radialGradient></defs><g fill="none" fill-rule="nonzero" stroke="none" stroke-width="1" stroke-linecap="butt" stroke-linejoin="miter" stroke-miterlimit="10" stroke-dasharray="" stroke-dashoffset="0" font-family="none" font-weight="none" font-size="none" text-anchor="none" style="mix-blend-mode: normal"><g transform="translate(179.96247,-46.2625) rotate(69) scale(1.024,1.024)"><g><g id="OBJECTS"><ellipse cx="49.19453" cy="113.05728" transform="rotate(-34.27)" rx="68.78" ry="47.55" fill="url(#color-1)"></ellipse><path d="M107.46,24.3c1.07,-3.17 2.22,-6.31 3.4,-9.44c-11.42685,2.38707 -22.25989,7.03854 -31.86,13.68c-25.4,17.3 -38.38,43.95 -32.89,64.15c-0.59,-18.76 12.09,-40.79 34.09,-55.78c8.30667,-5.71732 17.52457,-9.98136 27.26,-12.61z" fill="url(#color-2)" style="mix-blend-mode: screen"></path><path d="M158.1,29.07c-8.61,-12.63 -25.33,-17.57 -43.83,-14.8c-1.16,3 -2.26,6.11 -3.33,9.19c20.28,-4.36 39.08,0.31 48.39,14c2.00428,2.96042 3.4983,6.23577 4.42,9.69c-0.10364,-6.4449 -2.06551,-12.72287 -5.65,-18.08z" fill="url(#color-3)" style="mix-blend-mode: screen"></path><path d="M161.16,27c-7,-10.27 -19.06,-15.72 -33.16,-16.37c6.77,2.69 7.58,7.32 -5.37,13.8c-33.63,16.83 -49.13,35.91 -67.31,45.05c-6.51,3.27 -9.3,0.72 -10.22,-3.89c-5.34,14 -5,28.09 2.38,38.88c3.36463,4.86821 7.91449,8.79858 13.22,11.42c15.91,-12.57 37.92,-30.89 69.43,-50.63c15.87,-9.94 27.65,-18.76 36,-26.8c-0.93471,-4.09415 -2.61981,-7.97971 -4.97,-11.46z" fill="url(#color-4)" opacity="0.45"></path><path d="M247.6,19c10.69,15.68 -35.42,65.72 -103,111.76c-67.58,46.04 -131,70.66 -141.68,55c-10.68,-15.66 20.3,-89.18 87.86,-135.23c67.56,-46.05 146.14,-47.16 156.82,-31.53z" fill="url(#color-5)"></path><ellipse cx="45.82965" cy="155.18337" transform="rotate(-34.27)" rx="148.04" ry="34.35" fill="url(#color-6)" style="mix-blend-mode: multiply"></ellipse><path d="M105.92,74c65.31,-44.48 126.75,-69 140.43,-56.38c-8.48,-8.29 -38.05,-10.86 -74.29,-2.55c7.67,1 11.7,3.44 5.57,7.24c-14.59,9 -47,23.91 -73.11,41.7c-22.84,15.57 -41.52,33.72 -65.52,52.79c-10.74,8.53 -12.8,4.46 -11.81,-2.63c-21,30.64 -29.63,59 -25.1,69.91c-6.71,-17.34 38.54,-65.55 103.83,-110.08z" fill="url(#color-7)" opacity="0.45" style="mix-blend-mode: multiply"></path><g style="mix-blend-mode: screen"><path d="M109.41,71.68c-3.3,-5.05 -6.12,-9.31 -6.12,-9.31c0,0 -5,-7.09 -9.7,-13.69l-1,0.68c4.42,6.81 9.21,14 9.21,14c0,0 2.93,4.17 6.42,9.09z" fill="url(#color-8)" style="mix-blend-mode: multiply"></path><path d="M176.67,15.26c0,0 2.91,-0.2 7.29,-0.2c5.3454,-0.00927 10.68712,0.28118 16,0.87c4.89,0.51 9.69,1.34 13.67,2.13l1.57,-0.46c-4.96441,-1.29083 -9.99954,-2.29252 -15.08,-3c-5.34399,-0.73264 -10.72683,-1.1467 -16.12,-1.24c-1.39,0 -2.61,0 -3.67,0c-3.58667,0.66667 -7.25333,1.46 -11,2.38h0.07c4.35,-0.41 7.27,-0.48 7.27,-0.48z" fill="url(#color-9)" style="mix-blend-mode: multiply"></path><path d="M155,35.25c4.14,0.75 8.28,1.58 11.37,2.26l0.44,0.1l0.89,-0.45l-1.15,-0.35c-3,-0.9 -7.15,-1.93 -11.29,-2.85c-8.28,-1.82 -16.71,-2.86 -16.71,-2.86c0,0 -5.19,-0.54 -11.51,-0.82c-1,0.43 -1.91,0.86 -2.86,1.3c7.45,0.49 14.16,1.35 14.16,1.35c0,0 8.33,0.85 16.66,2.32z" fill="url(#color-10)" style="mix-blend-mode: multiply"></path><path d="M15.8,152.07c0.66,-3.6 1.56,-7.74 2.62,-11.84c1.37953,-5.04118 3.01838,-10.00779 4.91,-14.88c0.73,-2 1.51,-3.61 2,-4.77l0.77,-1.8l0.81,-1.78c0.54,-1.12 1.19,-2.78 2.17,-4.68c0.45,-0.93 1,-1.94 1.5,-3c-2.29333,3.18 -4.45333,6.34 -6.48,9.48l-0.43,1.07c-0.45,1.18 -1.2,2.82 -1.89,4.87c-1.80489,4.96507 -3.33389,10.02612 -4.58,15.16c-1.09,4.78 -1.93,9.54 -2.42,13.52c0.31,-0.42 0.65,-0.89 1.02,-1.35z" fill="url(#color-11)" style="mix-blend-mode: multiply"></path><path d="M50.38,116.81c0.2,-1.57 0.42,-3.18 0.66,-4.81c1.22,-8.13 3.19,-16.09 3.19,-16.09c0,0 1.77,-8.03 4.19,-15.91c0.47,-1.48 0.95,-2.93 1.43,-4.34l-1.85,1.86c-0.26,0.7 -0.53,1.4 -0.78,2.11c-2.81,7.79 -4.75,15.86 -4.75,15.86c0,0 -1.79,8.1 -2.68,16.34c-0.22,2 -0.4,4.1 -0.54,6z" fill="url(#color-12)" style="mix-blend-mode: multiply"></path></g><ellipse cx="46.63744" cy="160.81439" transform="rotate(-34.27)" rx="48.3" ry="11.21" fill="url(#color-13)" style="mix-blend-mode: multiply"></ellipse><path d="M122.79,97.36c-15.06,10.26 -26.84,21.13 -31.69,28.64c8.81,-2 22.83,-8.9 37.45,-18.86c15.05,-10.29 26.84,-21.14 31.69,-28.64c-8.81,2.02 -22.83,8.9 -37.45,18.86z" fill="url(#color-14)" style="mix-blend-mode: multiply"></path><path d="M136.89,70.82c2.86,4.18 -4.47,14.18 -16.37,22.27c-11.9,8.09 -23.86,11.28 -26.72,7.09c-2.86,-4.19 4.48,-14.18 16.37,-22.27c11.89,-8.09 23.83,-11.29 26.72,-7.09zM39.71,153.17c-11.9,8.11 -19.23,18.08 -16.37,22.27c2.86,4.19 14.82,1 26.72,-7.09c11.9,-8.09 19.23,-18.08 16.37,-22.27c-2.86,-4.19 -14.82,-1.02 -26.72,7.09zM64.1,117c-11.9,8.11 -19.23,18.08 -16.37,22.27c2.86,4.19 14.82,1 26.72,-7.09c11.9,-8.09 19.23,-18.08 16.37,-22.27c-2.86,-4.19 -14.82,-1.04 -26.72,7.09zM161.43,50.67c-11.9,8.11 -19.23,18.08 -16.37,22.27c2.86,4.19 14.82,1 26.72,-7.09c11.9,-8.09 19.22,-18.11 16.37,-22.3c-2.85,-4.19 -14.81,-1.02 -26.71,7.09zM207.1,39.11c-11.9,8.11 -19.23,18.08 -16.37,22.27c2.86,4.19 14.82,1 26.72,-7.09c11.9,-8.09 19.23,-18.11 16.38,-22.29c-2.85,-4.18 -14.83,-1 -26.72,7.08zM88.33,144.93c-9.06,6.18 -14.65,13.77 -12.47,17c2.18,3.23 11.29,0.77 20.35,-5.4c9.06,-6.17 14.65,-13.77 12.47,-17c-2.18,-3.23 -11.28,-0.78 -20.35,5.4zM178.57,83.43c-9.06,6.18 -14.65,13.77 -12.47,17c2.18,3.23 11.29,0.77 20.35,-5.4c9.06,-6.17 14.65,-13.77 12.47,-17c-2.18,-3.23 -11.29,-0.78 -20.35,5.4zM137.39,116.78c-9.06,6.18 -14.65,13.77 -12.47,17c2.18,3.23 11.29,0.77 20.35,-5.4c9.06,-6.17 14.65,-13.77 12.47,-17c-2.18,-3.23 -11.29,-0.77 -20.35,5.4z" fill="url(#color-15)" opacity="0.45" style="mix-blend-mode: screen"></path><path d="M188.75,45.66c-4.74,-1.41 -14.61,1.9 -24.44,8.61c-10.22,7 -17,15.29 -17,20.16c4.74,1.41 14.61,-1.9 24.44,-8.61c10.25,-6.96 17.08,-15.29 17,-20.16z" fill="url(#color-16)" opacity="0.45" style="mix-blend-mode: screen"></path><path d="M217.46,54.26c10.22,-7 17,-15.29 17,-20.16c-4.74,-1.41 -14.61,1.9 -24.44,8.61c-10.22,7 -17,15.29 -17,20.16c4.74,1.41 14.6,-1.87 24.44,-8.61z" fill="url(#color-17)" opacity="0.45" style="mix-blend-mode: screen"></path><path d="M140.26,120.41c-7.3,5 -12.34,10.88 -12.88,14.65c3.83,0.59 10.87,-1.92 17.9,-6.71c7.3,-5 12.34,-10.88 12.88,-14.65c-3.84,-0.6 -10.88,1.92 -17.9,6.71z" fill="url(#color-18)" opacity="0.45" style="mix-blend-mode: screen"></path><path d="M181.44,87.06c-7.3,5 -12.34,10.88 -12.88,14.65c3.83,0.59 10.87,-1.92 17.9,-6.71c7.31,-5 12.34,-10.87 12.88,-14.65c-3.84,-0.6 -10.87,1.92 -17.9,6.71z" fill="url(#color-19)" opacity="0.45" style="mix-blend-mode: screen"></path><path d="M91.2,148.55c-7.3,5 -12.34,10.88 -12.88,14.65c3.83,0.59 10.87,-1.92 17.89,-6.71c7.3,-5 12.34,-10.88 12.88,-14.65c-3.82,-0.59 -10.86,1.92 -17.89,6.71z" fill="url(#color-20)" opacity="0.45" style="mix-blend-mode: screen"></path><path d="M67,120.6c-10.22,7 -17,15.29 -17,20.16c4.74,1.41 14.61,-1.9 24.44,-8.61c10.22,-7 17,-15.29 17,-20.16c-4.77,-1.41 -14.63,1.91 -24.44,8.61z" fill="url(#color-21)" opacity="0.45" style="mix-blend-mode: screen"></path><path d="M25.61,177c4.74,1.41 14.61,-1.9 24.44,-8.61c10.22,-7 17,-15.29 17,-20.16c-4.74,-1.41 -14.61,1.9 -24.44,8.61c-10.25,6.91 -17.08,15.24 -17,20.16z" fill="url(#color-22)" opacity="0.45" style="mix-blend-mode: screen"></path><path d="M113,81.53c-10.22,7 -17,15.29 -17,20.16c4.74,1.41 14.61,-1.9 24.44,-8.61c10.22,-7 17,-15.29 17,-20.16c-4.7,-1.41 -14.56,1.91 -24.44,8.61z" fill="url(#color-23)" opacity="0.45" style="mix-blend-mode: screen"></path><ellipse cx="-46.86143" cy="162.2558" transform="rotate(-34.27)" rx="9.85" ry="2.52" fill="url(#color-24)" opacity="0.45" style="mix-blend-mode: screen"></ellipse><ellipse cx="-5.29635" cy="144.96124" transform="rotate(-34.27)" rx="9.85" ry="2.52" fill="url(#color-25)" opacity="0.45" style="mix-blend-mode: screen"></ellipse><ellipse cx="55.72122" cy="139.43984" transform="rotate(-34.27)" rx="9.85" ry="2.52" fill="url(#color-26)" opacity="0.45" style="mix-blend-mode: screen"></ellipse><ellipse cx="113.8651" cy="145.8032" transform="rotate(-34.27)" rx="9.85" ry="2.52" fill="url(#color-27)" opacity="0.45" style="mix-blend-mode: screen"></ellipse><ellipse cx="159.5103" cy="160.45502" transform="rotate(-34.27)" rx="9.85" ry="2.52" fill="url(#color-28)" opacity="0.45" style="mix-blend-mode: screen"></ellipse><ellipse cx="107.18003" cy="179.53787" transform="rotate(-34.28)" rx="7.5" ry="1.92" fill="url(#color-29)" opacity="0.45" style="mix-blend-mode: screen"></ellipse><ellipse cx="54.33603" cy="183.6331" transform="rotate(-34.27)" rx="7.5" ry="1.92" fill="url(#color-30)" opacity="0.45" style="mix-blend-mode: screen"></ellipse><ellipse cx="-3.56549" cy="179.06261" transform="rotate(-34.28)" rx="7.5" ry="1.92" fill="url(#color-31)" opacity="0.45" style="mix-blend-mode: screen"></ellipse><g style="mix-blend-mode: screen"><path d="M106.05,210.49c-9.32,1.83 -12.65,-0.63 -14.34,-3.11c-2.55,-3.74 -3.7,-10.94 15.69,-30.15c12.45,-12.33 30.35,-26.65 50.4,-40.31c8,-5.43 78.26,-52.61 89.76,-35.75v0c11.5,16.87 -58.12,65 -66.1,70.46c-20.05,13.67 -39.92,25.09 -56,32.17c-8.37,3.71 -14.66,5.75 -19.41,6.69zM99.22,202.26c5.95,1.48 35.3,-9.36 77.26,-37.95c41.96,-28.59 62.77,-51.94 63.58,-58c-6,-1.49 -35.32,9.36 -77.26,38c-41.94,28.64 -62.8,51.86 -63.58,57.95z" fill="url(#color-32)" style="mix-blend-mode: normal"></path><path d="M153.33,223.12c-5.29,1 -8.68,0.16 -10.58,-2.62c-7.62,-11.19 29.42,-37.71 41,-45.57c11.58,-7.86 49.76,-32.64 57.39,-21.46v0c7.62,11.18 -29.43,37.7 -41,45.57c-12.37,8.43 -24.65,15.49 -34.56,19.87c-3.92111,1.83718 -8.02792,3.24858 -12.25,4.21zM232.27,159.5c-6.3,1.32 -21.94,8 -43.57,22.75c-21.63,14.75 -33.57,26.85 -37.11,32.23c6.3,-1.32 21.94,-8 43.56,-22.76c21.62,-14.76 33.58,-26.84 37.12,-32.22z" fill="url(#color-33)" style="mix-blend-mode: normal"></path><path d="M189.34,239.71c-3.91,0.77 -7,0.28 -8.62,-2.12c-4.92,-7.23 11,-20.31 25.25,-30c14.25,-9.69 32.23,-19.77 37.16,-12.59v0c4.92,7.22 -11,20.31 -25.25,30c-9.51,6.53 -20.69,13.17 -28.54,14.71zM230.7,203.52c-13.73644,6.58599 -26.39658,15.21376 -37.55,25.59c6.89784,-3.20929 13.50283,-7.01369 19.74,-11.37c6.33638,-4.21223 12.29239,-8.97035 17.8,-14.22z" fill="url(#color-34)" style="mix-blend-mode: normal"></path></g></g></g></g></g></svg>